<?xml version="1.0" encoding="utf-8"?>
<!-- Generator: Adobe Illustrator 15.0.0, SVG Export Plug-In . SVG Version: 6.00 Build 0)  -->
<!DOCTYPE svg PUBLIC "-//W3C//DTD SVG 1.1//EN" "http://www.w3.org/Graphics/SVG/1.1/DTD/svg11.dtd">
<svg version="1.1" id="Layer_1" xmlns="http://www.w3.org/2000/svg" xmlns:xlink="http://www.w3.org/1999/xlink" x="0px" y="0px"
	 width="1000px" height="1000px" viewBox="0 0 1000 1000" enable-background="new 0 0 1000 1000" xml:space="preserve">
<rect x="291" y="472" fill="#0071BC" width="11" height="8"/>
<rect x="261" y="489" width="12" height="8"/>
<rect x="252" y="505" width="11" height="8"/>
<rect x="281" y="521" fill="#0071BC" width="11" height="8"/>
<rect x="300" y="521" width="23" height="8"/>
<rect x="271" y="505" fill="#0071BC" width="52" height="8"/>
<rect x="281" y="489" width="42" height="8"/>
<polygon fill="#0071BC" points="363.516,521 349,521 349,529 357.697,529 "/>
<polygon points="373.567,505 349,505 349,513 367.749,513 "/>
<polygon fill="#0071BC" points="369.864,489 349,489 349,497 375.683,497 "/>
<path fill="#0071BC" d="M470.266,529.769v-59.536h20.512c4.628,0,8.164,0.282,10.6,0.851c3.41,0.786,6.322,2.209,8.73,4.265
	c3.141,2.654,5.49,6.044,7.047,10.174c1.557,4.129,2.336,8.848,2.336,14.153c0,4.521-0.527,8.53-1.586,12.022
	c-1.055,3.491-2.408,6.383-4.061,8.67c-1.652,2.289-3.459,4.088-5.422,5.4c-1.963,1.315-4.33,2.31-7.107,2.986
	c-2.775,0.678-5.963,1.015-9.564,1.015H470.266z M478.145,522.744h12.712c3.926,0,7.007-0.368,9.241-1.097
	c2.23-0.732,4.012-1.761,5.342-3.088c1.867-1.868,3.32-4.38,4.365-7.535c1.041-3.15,1.563-6.978,1.563-11.472
	c0-6.227-1.021-11.013-3.066-14.356c-2.043-3.344-4.527-5.584-7.453-6.722c-2.111-0.811-5.51-1.218-10.194-1.218h-12.509V522.744z"
	/>
<path fill="#0071BC" d="M531.018,529.769v-59.536h7.879v59.536H531.018z"/>
<path fill="#0071BC" d="M552.127,529.769v-59.536h26.4c5.305,0,9.34,0.533,12.1,1.603c2.762,1.069,4.967,2.959,6.619,5.665
	c1.652,2.709,2.479,5.7,2.479,8.977c0,4.221-1.367,7.783-4.1,10.68c-2.736,2.898-6.961,4.738-12.674,5.525
	c2.086,1.001,3.67,1.989,4.754,2.962c2.301,2.112,4.479,4.754,6.537,7.921l10.355,16.204h-9.91l-7.877-12.388
	c-2.301-3.572-4.199-6.306-5.686-8.203c-1.49-1.895-2.824-3.22-4.002-3.98c-1.176-0.757-2.375-1.283-3.594-1.582
	c-0.895-0.189-2.355-0.285-4.385-0.285h-9.139v26.438H552.127z M560.006,496.506h16.936c3.6,0,6.416-0.371,8.449-1.115
	c2.027-0.746,3.572-1.936,4.627-3.574c1.057-1.639,1.586-3.418,1.586-5.34c0-2.815-1.023-5.131-3.068-6.945
	c-2.043-1.813-5.271-2.723-9.688-2.723h-18.842V496.506z"/>
<path fill="#0071BC" d="M614.072,529.769v-59.536h43.051v7.024h-35.17v18.235h32.936v6.984h-32.936v20.268h36.551v7.024H614.072z"/>
<path fill="#0071BC" d="M709.777,508.895l7.879,1.989c-1.652,6.472-4.625,11.405-8.916,14.804
	c-4.293,3.398-9.537,5.098-15.736,5.098c-6.418,0-11.637-1.309-15.656-3.92c-4.02-2.613-7.08-6.396-9.18-11.352
	c-2.098-4.955-3.146-10.275-3.146-15.961c0-6.199,1.184-11.607,3.553-16.224s5.742-8.125,10.113-10.52
	c4.373-2.396,9.184-3.595,14.436-3.595c5.957,0,10.967,1.518,15.029,4.551c4.063,3.031,6.891,7.296,8.488,12.792l-7.758,1.827
	c-1.381-4.33-3.385-7.486-6.01-9.464c-2.627-1.976-5.932-2.966-9.91-2.966c-4.576,0-8.4,1.098-11.473,3.291
	c-3.074,2.195-5.234,5.139-6.48,8.833c-1.244,3.696-1.865,7.508-1.865,11.433c0,5.064,0.736,9.484,2.211,13.26
	c1.477,3.777,3.771,6.6,6.885,8.469c3.115,1.867,6.484,2.803,10.113,2.803c4.414,0,8.148-1.273,11.211-3.818
	C706.621,517.68,708.693,513.902,709.777,508.895z"/>
<path fill="#0071BC" d="M739.486,529.769v-52.512h-19.615v-7.024h47.191v7.024h-19.697v52.512H739.486z"/>
<polygon points="404.379,470 403,470 403,470.678 392.085,489.313 380.741,470 311,470 311,480.087 330,480.078 330,530 342,530 
	342,480.073 373.184,480.06 385.193,498.314 364.781,530 379.2,530 392.439,508.407 405.637,530 420.135,530 399.789,498.405 
	412.207,479 433,479 433,530 445,530 445,479 461,479 461,470 "/>
</svg>
