<?xml version="1.0" encoding="UTF-8" standalone="no"?>
<!-- Created with Inkscape (http://www.inkscape.org/) -->

<svg
   xmlns:dc="http://purl.org/dc/elements/1.1/"
   xmlns:cc="http://creativecommons.org/ns#"
   xmlns:rdf="http://www.w3.org/1999/02/22-rdf-syntax-ns#"
   xmlns:svg="http://www.w3.org/2000/svg"
   xmlns="http://www.w3.org/2000/svg"
   xmlns:sodipodi="http://sodipodi.sourceforge.net/DTD/sodipodi-0.dtd"
   xmlns:inkscape="http://www.inkscape.org/namespaces/inkscape"
   width="5000"
   height="800"
   viewBox="0 0 1322.9166 211.66667"
   version="1.1"
   id="svg8"
   sodipodi:docname="a_rekkur_service.svg"
   inkscape:export-filename="/home/stp-ip/annex/data/corporate/nzt.ventures/branding/Rekkur/Raster_Files/PNG/Other/a_rekkur_service_800x5000.png"
   inkscape:export-xdpi="96"
   inkscape:export-ydpi="96"
   inkscape:version="0.92.4 5da689c313, 2019-01-14">
  <defs
     id="defs2" />
  <sodipodi:namedview
     id="base"
     pagecolor="#ffffff"
     bordercolor="#666666"
     borderopacity="1.0"
     inkscape:pageopacity="0.0"
     inkscape:pageshadow="2"
     inkscape:zoom="0.069135801"
     inkscape:cx="1506.2368"
     inkscape:cy="4457.4107"
     inkscape:document-units="mm"
     inkscape:current-layer="flowRoot93"
     showgrid="false"
     units="px"
     inkscape:window-width="1916"
     inkscape:window-height="1041"
     inkscape:window-x="1366"
     inkscape:window-y="18"
     inkscape:window-maximized="0" />
  <metadata
     id="metadata5">
    <rdf:RDF>
      <cc:Work
         rdf:about="">
        <dc:format>image/svg+xml</dc:format>
        <dc:type
           rdf:resource="http://purl.org/dc/dcmitype/StillImage" />
        <dc:title></dc:title>
      </cc:Work>
    </rdf:RDF>
  </metadata>
  <g
     inkscape:label="Layer 1"
     inkscape:groupmode="layer"
     id="layer1"
     transform="translate(0,-85.33332)">
    <g
       aria-label="A service by"
       transform="matrix(0.3457244,0,0,0.34738852,-45.365806,408.75807)"
       style="font-style:normal;font-variant:normal;font-weight:900;font-stretch:normal;font-size:160px;line-height:125%;font-family:Mont;-inkscape-font-specification:'Mont, Heavy';font-variant-ligatures:normal;font-variant-caps:normal;font-variant-numeric:normal;font-feature-settings:normal;text-align:center;letter-spacing:0px;word-spacing:0px;writing-mode:lr-tb;text-anchor:middle;fill:#041733;fill-opacity:1;stroke:none;stroke-width:0.76346612px;stroke-linecap:butt;stroke-linejoin:miter;stroke-opacity:1"
       id="flowRoot10">
      <g
         style="font-style:normal;font-variant:normal;font-weight:900;font-stretch:normal;font-size:40px;line-height:125%;font-family:Mont;-inkscape-font-specification:'Mont Heavy';font-variant-ligatures:normal;font-variant-caps:normal;font-variant-numeric:normal;font-feature-settings:normal;text-align:center;letter-spacing:0px;word-spacing:0px;writing-mode:lr-tb;text-anchor:middle;fill:#000000;fill-opacity:1;stroke:none;stroke-width:0.8184852px;stroke-linecap:butt;stroke-linejoin:miter;stroke-opacity:1"
         id="flowRoot85" />
      <g
         aria-label="service"
         transform="matrix(0.72818241,0,0,0.72469411,2295.8333,-1030.0787)"
         style="font-style:normal;font-variant:normal;font-weight:900;font-stretch:normal;font-size:598.01635742px;line-height:125%;font-family:Mont;-inkscape-font-specification:'Mont, Heavy';font-variant-ligatures:normal;font-variant-caps:normal;font-variant-numeric:normal;font-feature-settings:normal;text-align:center;letter-spacing:0px;word-spacing:0px;writing-mode:lr-tb;text-anchor:middle;fill:#041733;fill-opacity:1;stroke:none;stroke-width:1.05097473px;stroke-linecap:butt;stroke-linejoin:miter;stroke-opacity:1"
         id="flowRoot93">
        <path
           d="m 87.766963,683.77693 c 86.114357,0 142.925907,-44.25321 142.925907,-111.82906 0,-81.33022 -67.57585,-92.09452 -119.00525,-101.06476 -30.498837,-5.38215 -55.017507,-10.16628 -55.017507,-28.10677 0,-14.95041 11.960327,-23.92065 29.900818,-23.92065 19.734539,0 33.488919,9.56826 33.488919,29.90081 H 224.71271 C 223.51668,383.57272 169.6952,339.91753 87.766963,339.91753 c -82.526257,0 -138.141778,41.86114 -138.141778,106.44691 0,78.34014 66.379815,93.29055 116.613189,101.66278 31.096851,4.78413 55.615526,10.16628 55.615526,28.70478 0,16.74446 -15.54843,25.11669 -31.694871,25.11669 -20.930573,0 -37.675031,-10.76429 -37.675031,-34.68495 H -54.56093 c 1.196033,69.96792 54.4194888,116.61319 142.327893,116.61319 z"
           style="font-style:normal;font-variant:normal;font-weight:900;font-stretch:normal;font-size:598.01635742px;font-family:Mont;-inkscape-font-specification:'Mont, Heavy';font-variant-ligatures:normal;font-variant-caps:normal;font-variant-numeric:normal;font-feature-settings:normal;text-align:center;writing-mode:lr-tb;text-anchor:middle;fill:#ffffff;fill-opacity:1;stroke-width:1.05097473px"
           id="path164"
           inkscape:connector-curvature="0" />
        <path
           d="m 614.74085,508.55814 c 0,-94.48658 -71.76196,-168.64061 -175.81681,-168.64061 -101.66278,0 -175.21879,72.95799 -175.21879,171.63069 0,98.6727 74.15403,172.22871 175.21879,172.22871 80.73221,0 146.51401,-46.04726 169.23863,-119.60327 H 496.93163 c -10.16628,19.13652 -32.29288,30.49884 -58.00759,30.49884 -35.28296,0 -58.6056,-19.13653 -65.7818,-56.21354 H 612.9468 c 1.19604,-10.16628 1.79405,-19.73454 1.79405,-29.90082 z M 438.92404,427.22792 c 33.48892,0 56.81156,17.34247 66.37982,49.63535 H 374.93629 c 8.97025,-32.29288 31.69487,-49.63535 63.98775,-49.63535 z"
           style="font-style:normal;font-variant:normal;font-weight:900;font-stretch:normal;font-size:598.01635742px;font-family:Mont;-inkscape-font-specification:'Mont, Heavy';font-variant-ligatures:normal;font-variant-caps:normal;font-variant-numeric:normal;font-feature-settings:normal;text-align:center;writing-mode:lr-tb;text-anchor:middle;fill:#ffffff;fill-opacity:1;stroke-width:1.05097473px"
           id="path166"
           inkscape:connector-curvature="0" />
        <path
           d="m 845.94888,348.88777 c -38.27304,0 -65.78179,10.7643 -88.50642,37.07702 L 740.09999,350.08381 H 665.34794 V 673.01264 H 776.57899 V 509.15616 c 0,-41.26313 16.74446,-58.60561 55.61552,-58.60561 H 875.8497 V 348.88777 Z"
           style="font-style:normal;font-variant:normal;font-weight:900;font-stretch:normal;font-size:598.01635742px;font-family:Mont;-inkscape-font-specification:'Mont, Heavy';font-variant-ligatures:normal;font-variant-caps:normal;font-variant-numeric:normal;font-feature-settings:normal;text-align:center;writing-mode:lr-tb;text-anchor:middle;fill:#ffffff;fill-opacity:1;stroke-width:1.05097473px"
           id="path168"
           inkscape:connector-curvature="0" />
        <path
           d="m 1128.6798,350.08381 -60.3997,191.36523 -60.9976,-191.36523 H 885.28714 l 131.56356,322.92883 h 100.4668 L 1247.087,350.08381 Z"
           style="font-style:normal;font-variant:normal;font-weight:900;font-stretch:normal;font-size:598.01635742px;font-family:Mont;-inkscape-font-specification:'Mont, Heavy';font-variant-ligatures:normal;font-variant-caps:normal;font-variant-numeric:normal;font-feature-settings:normal;text-align:center;writing-mode:lr-tb;text-anchor:middle;fill:#ffffff;fill-opacity:1;stroke-width:1.05097473px"
           id="path170"
           inkscape:connector-curvature="0" />
        <path
           d="m 1283.8184,310.01671 h 110.035 v -94.48659 h -110.035 z m -0.598,362.99593 h 111.231 V 350.08381 h -111.231 z"
           style="font-style:normal;font-variant:normal;font-weight:900;font-stretch:normal;font-size:598.01635742px;font-family:Mont;-inkscape-font-specification:'Mont, Heavy';font-variant-ligatures:normal;font-variant-caps:normal;font-variant-numeric:normal;font-feature-settings:normal;text-align:center;writing-mode:lr-tb;text-anchor:middle;fill:#ffffff;fill-opacity:1;stroke-width:1.05097473px"
           id="path172"
           inkscape:connector-curvature="0" />
        <path
           d="m 1623.9308,683.77693 c 90.8985,0 160.2684,-59.20362 172.8267,-146.51401 h -109.437 c -8.9702,28.70479 -33.4889,47.2433 -63.3897,47.2433 -38.8711,0 -66.9778,-30.49884 -66.9778,-72.958 0,-41.86114 28.1067,-71.76196 66.9778,-71.76196 29.3028,0 53.8215,17.34247 62.7917,43.65519 h 108.839 c -12.5584,-86.11435 -80.1342,-142.92591 -171.0327,-142.92591 -104.6529,0 -178.8069,71.16395 -178.8069,171.03268 0,99.86873 74.7521,172.22871 178.2089,172.22871 z"
           style="font-style:normal;font-variant:normal;font-weight:900;font-stretch:normal;font-size:598.01635742px;font-family:Mont;-inkscape-font-specification:'Mont, Heavy';font-variant-ligatures:normal;font-variant-caps:normal;font-variant-numeric:normal;font-feature-settings:normal;text-align:center;writing-mode:lr-tb;text-anchor:middle;fill:#ffffff;fill-opacity:1;stroke-width:1.05097473px"
           id="path174"
           inkscape:connector-curvature="0" />
        <path
           d="m 2177.5258,508.55814 c 0,-94.48658 -71.7619,-168.64061 -175.8168,-168.64061 -101.6628,0 -175.2188,72.95799 -175.2188,171.63069 0,98.6727 74.1541,172.22871 175.2188,172.22871 80.7322,0 146.514,-46.04726 169.2386,-119.60327 h -111.231 c -10.1663,19.13652 -32.2929,30.49884 -58.0076,30.49884 -35.2829,0 -58.6056,-19.13653 -65.7818,-56.21354 h 239.8046 c 1.196,-10.16628 1.794,-19.73454 1.794,-29.90082 z M 2001.709,427.22792 c 33.4889,0 56.8116,17.34247 66.3798,49.63535 h -130.3675 c 8.9702,-32.29288 31.6948,-49.63535 63.9877,-49.63535 z"
           style="font-style:normal;font-variant:normal;font-weight:900;font-stretch:normal;font-size:598.01635742px;font-family:Mont;-inkscape-font-specification:'Mont, Heavy';font-variant-ligatures:normal;font-variant-caps:normal;font-variant-numeric:normal;font-feature-settings:normal;text-align:center;writing-mode:lr-tb;text-anchor:middle;fill:#ffffff;fill-opacity:1;stroke-width:1.05097473px"
           id="path176"
           inkscape:connector-curvature="0" />
      </g>
      <g
         aria-label="a"
         transform="matrix(0.93313926,0,0,0.92866916,-1001.5193,-963.12239)"
         style="font-style:normal;font-variant:normal;font-weight:900;font-stretch:normal;font-size:466.66665649px;line-height:125%;font-family:Mont;-inkscape-font-specification:'Mont, Heavy';font-variant-ligatures:normal;font-variant-caps:normal;font-variant-numeric:normal;font-feature-settings:normal;text-align:center;letter-spacing:0px;word-spacing:0px;writing-mode:lr-tb;text-anchor:middle;fill:#ffffff;fill-opacity:1;stroke:none;stroke-width:0.82013625px;stroke-linecap:butt;stroke-linejoin:miter;stroke-opacity:1"
         id="flowRoot93-3">
        <path
           d="m 1513.8478,193.68699 -8.8667,19.6 c -20.5333,-17.26667 -47.1333,-27.06667 -77,-27.06667 -77,0 -132.0666,55.53334 -132.0666,133.46667 0,78.4 55.0666,134.39999 132.0666,134.39999 29.4,0 55.5334,-9.33333 76.0667,-26.13333 l 7.4667,17.73333 h 67.2 V 193.68699 Z m -74.2,183.86666 c -32.6667,0 -56.4667,-24.73333 -56.4667,-57.86666 0,-32.66667 23.8,-56.93334 56.4667,-56.93334 32.6667,0 56.4667,24.26667 56.4667,56.93334 0,33.13333 -23.8,57.86666 -56.4667,57.86666 z"
           style="font-style:normal;font-variant:normal;font-weight:900;font-stretch:normal;font-size:466.66665649px;font-family:Mont;-inkscape-font-specification:'Mont, Heavy';font-variant-ligatures:normal;font-variant-caps:normal;font-variant-numeric:normal;font-feature-settings:normal;text-align:center;writing-mode:lr-tb;text-anchor:middle;fill:#ffffff;fill-opacity:1;stroke-width:0.82013625px"
           id="path179"
           inkscape:connector-curvature="0" />
      </g>
    </g>
    <g
       id="g947"
       transform="matrix(0.56521177,0,0,0.56793241,140.90605,93.293357)"
       style="stroke-width:0.4669911;fill:#ffffff">
      <path
         id="path915"
         d="m 499.978,271.323 c -2.564,-3.669 -6.745,-6.058 -12.462,-6.058 -5.976,0 -12.888,3.582 -12.888,11.347 0,7.68 6.399,9.646 13.145,11.864 8.531,2.816 17.921,5.544 17.921,17.66 0,12.122 -10.16,17.409 -19.716,17.409 -7.338,0 -14.678,-2.982 -19.033,-8.955 l 5.295,-3.93 c 2.646,4.269 7.509,7.598 13.823,7.598 6.229,0 13.397,-3.926 13.397,-11.693 0,-8.447 -7.084,-10.583 -14.761,-12.969 -8.021,-2.478 -16.213,-5.976 -16.213,-16.897 0,-11.693 10.408,-16.641 19.286,-16.641 8.105,0 14.166,3.414 17.069,7.341 z"
         inkscape:connector-curvature="0"
         style="fill:#ffffff;stroke-width:0.4669911" />
      <path
         id="path917"
         d="m 549.173,323.546 c -18.003,0 -31.49,-13.393 -31.49,-31.742 0,-18.348 13.487,-31.745 31.49,-31.745 18.008,0 31.495,13.397 31.495,31.745 0,18.349 -13.487,31.742 -31.495,31.742 z m 0,-58.111 c -15.533,0 -24.999,12.29 -24.999,26.369 0,14.081 9.466,26.282 24.999,26.282 15.527,0 25.004,-12.201 25.004,-26.282 0,-14.079 -9.477,-26.369 -25.004,-26.369 z"
         inkscape:connector-curvature="0"
         style="fill:#ffffff;stroke-width:0.4669911" />
      <path
         id="path919"
         d="m 601.612,316.553 h 28.168 v 5.46 h -34.301 v -60.416 h 6.133 z"
         inkscape:connector-curvature="0"
         style="fill:#ffffff;stroke-width:0.4669911" />
      <path
         id="path921"
         d="m 644.099,299.485 v -37.889 h 6.144 v 37.202 c 0,9.731 4.185,19.287 16.472,19.287 12.288,0 16.462,-9.556 16.462,-19.287 v -37.202 h 6.144 v 37.889 c 0,10.065 -4.516,24.061 -22.605,24.061 -18.091,0 -22.617,-13.995 -22.617,-24.061 z"
         inkscape:connector-curvature="0"
         style="fill:#ffffff;stroke-width:0.4669911" />
      <path
         id="path923"
         d="m 728.956,322.013 h -6.149 v -54.958 h -20.229 v -5.458 h 46.595 v 5.458 h -20.217 z"
         inkscape:connector-curvature="0"
         style="fill:#ffffff;stroke-width:0.4669911" />
      <path
         id="path925"
         d="m 774.395,322.013 h -6.145 v -60.416 h 6.145 z"
         inkscape:connector-curvature="0"
         style="fill:#ffffff;stroke-width:0.4669911" />
      <path
         id="path927"
         d="m 823.312,323.546 c -18.008,0 -31.49,-13.393 -31.49,-31.742 0,-18.348 13.482,-31.745 31.49,-31.745 18.008,0 31.484,13.397 31.484,31.745 0,18.349 -13.477,31.742 -31.484,31.742 z m 0,-58.111 c -15.528,0 -25.004,12.29 -25.004,26.369 0,14.081 9.476,26.282 25.004,26.282 15.533,0 25.01,-12.201 25.01,-26.282 -10e-4,-14.079 -9.477,-26.369 -25.01,-26.369 z"
         inkscape:connector-curvature="0"
         style="fill:#ffffff;stroke-width:0.4669911" />
      <path
         id="path929"
         d="m 915.235,313.052 h 0.168 v -51.455 h 6.145 v 60.416 h -7.68 l -35.159,-51.968 h -0.163 v 51.968 h -6.154 v -60.416 h 7.686 z"
         inkscape:connector-curvature="0"
         style="fill:#ffffff;stroke-width:0.4669911" />
      <path
         id="path931"
         d="m 971.816,271.323 c -2.562,-3.669 -6.746,-6.058 -12.462,-6.058 -5.964,0 -12.884,3.582 -12.884,11.347 0,7.68 6.398,9.646 13.14,11.864 8.531,2.816 17.921,5.544 17.921,17.66 0,12.122 -10.149,17.409 -19.712,17.409 -7.344,0 -14.682,-2.982 -19.029,-8.955 l 5.292,-3.93 c 2.638,4.269 7.506,7.598 13.824,7.598 6.225,0 13.395,-3.926 13.395,-11.693 0,-8.447 -7.077,-10.583 -14.763,-12.969 -8.021,-2.478 -16.206,-5.976 -16.206,-16.897 0,-11.693 10.404,-16.641 19.278,-16.641 8.113,0 14.171,3.414 17.069,7.341 z"
         inkscape:connector-curvature="0"
         style="fill:#ffffff;stroke-width:0.4669911" />
      <g
         id="g945"
         style="stroke-width:0.4669911;fill:#ffffff"
         transform="translate(-7.4252767e-6)">
        <path
           id="path933"
           d="M 39.571,226.313 H 92.06 V 168.02 h 19.03 l 30.912,58.293 h 58.582 l -37.829,-69.289 c 18.82,-11.27 30.241,-30.429 30.241,-53.808 0,-39.826 -29.773,-67.427 -70.848,-67.427 H 100.32 39.571 14.176 v 46.342 h 25.396 v 144.182 z m 52.49,-143.88 h 23.976 c 14.674,0 23.118,8.719 23.118,20.627 0,11.911 -8.444,20.744 -23.118,20.744 H 92.061 Z"
           inkscape:connector-curvature="0"
           style="fill:#ffffff;stroke-width:0.4669911" />
        <path
           id="path935"
           d="m 289.084,231.136 c 36.875,0 66.608,-20.958 76.95,-54.502 h -50.377 c -4.866,8.603 -14.747,13.783 -26.573,13.783 -15.985,0 -26.691,-8.717 -30.004,-25.577 h 109.135 c 0.658,-4.545 1.044,-8.974 1.044,-13.4 l 0.003,-0.005 c 0,-43.11 -32.802,-76.909 -80.178,-76.909 -46.13,0 -79.832,33.132 -79.832,78.19 0,44.9 33.974,78.42 79.832,78.42 z m -0.003,-116.945 c 15.278,0 25.866,7.927 30.307,22.616 h -59.415 c 4.096,-14.599 14.354,-22.616 29.108,-22.616 z"
           inkscape:connector-curvature="0"
           style="fill:#ffffff;stroke-width:0.4669911" />
        <polygon
           id="polygon937"
           points="480.117,79.339 445.104,136.918 445.104,26.265 394.48,26.265 394.564,306.232 369.229,306.232 369.229,245.174 318.551,245.174 318.551,306.232 293.215,306.232 293.215,256.268 242.536,256.268 242.536,306.232 217.198,306.232 217.198,270.146 166.521,270.146 166.521,306.232 141.182,306.232 141.182,263.188 90.506,263.188 90.506,306.232 65.167,306.232 64.851,284.069 14.176,284.069 14.176,323.735 445.243,323.735 445.243,320.14 445.243,306.232 445.104,164.159 481.916,226.313 541.596,226.313 491.156,149.388 536.961,79.339 "
           style="fill:#ffffff;stroke-width:0.4669911" />
        <polygon
           id="polygon939"
           points="642.611,79.339 607.599,136.918 607.599,26.265 556.978,26.265 556.978,226.313 607.599,226.313 607.599,164.159 644.413,226.313 704.093,226.313 653.65,149.388 699.458,79.339 "
           style="fill:#ffffff;stroke-width:0.4669911" />
        <path
           id="path941"
           d="m 809.569,161.016 c 0,15.36 -8.185,24.638 -21.71,24.638 -13.525,0 -21.861,-9.124 -21.861,-24.638 V 79.339 h -50.627 v 83.878 c 0,41.126 29.074,67.916 72.488,67.916 43.42,0 72.331,-26.789 72.331,-67.916 V 79.339 h -50.621 z"
           inkscape:connector-curvature="0"
           style="fill:#ffffff;stroke-width:0.4669911" />
        <path
           id="path943"
           d="m 972.413,78.639 c -17.492,0 -30.122,5.023 -40.482,17.012 l -7.902,-16.312 h -33.916 v 146.974 h 50.627 v -74.738 c 0,-18.749 7.506,-26.608 25.427,-26.608 h 19.658 V 78.639 Z"
           inkscape:connector-curvature="0"
           style="fill:#ffffff;stroke-width:0.4669911" />
      </g>
    </g>
  </g>
</svg>
