<?xml version="1.0" encoding="UTF-8" standalone="no"?>
<svg
   xmlns:dc="http://purl.org/dc/elements/1.1/"
   xmlns:cc="http://creativecommons.org/ns#"
   xmlns:rdf="http://www.w3.org/1999/02/22-rdf-syntax-ns#"
   xmlns:svg="http://www.w3.org/2000/svg"
   xmlns="http://www.w3.org/2000/svg"
   version="1.1"
   id="Layer_1"
   x="0px"
   y="0px"
   width="300"
   height="100"
   viewBox="0 0 300 100"
   enable-background="new 0 0 1000 1000"
   xml:space="preserve"><metadata
     id="metadata41"><rdf:RDF><cc:Work
         rdf:about=""><dc:format>image/svg+xml</dc:format><dc:type
           rdf:resource="http://purl.org/dc/dcmitype/StillImage" /><dc:title></dc:title></cc:Work></rdf:RDF></metadata><defs
     id="defs39" /><path
     d="m 254.24697,32.519225 c -2.98215,0 -5.71475,0.681207 -8.1978,2.041688 -2.48193,1.359912 -4.3962,3.351535 -5.74135,5.973127 -1.34516,2.621595 -2.01841,5.692676 -2.01841,9.212551 0,3.228587 0.59536,6.249317 1.78663,9.062832 1.1924,2.814083 2.92972,4.961872 5.21235,6.445569 2.28203,1.482561 5.2456,2.225783 8.88982,2.225783 3.51987,0 6.49767,-0.965088 8.9353,-2.894516 2.43649,-1.929999 4.12461,-4.73141 5.06264,-8.4063 l -4.47377,-1.128971 c -0.6155,2.843041 -1.79251,4.988283 -3.52775,6.433369 -1.73922,1.445085 -3.85939,2.168115 -6.36572,2.168115 -2.0606,0 -3.97262,-0.531322 -5.74135,-1.59143 -1.76817,-1.061242 -3.0717,-2.665149 -3.91036,-4.809777 -0.83752,-2.144064 -1.2554,-4.653666 -1.2554,-7.529072 0,-2.228667 0.35274,-4.3924 1.05909,-6.491038 0.70751,-2.097503 1.93424,-3.769705 3.67969,-5.016053 1.7449,-1.245215 3.91602,-1.868683 6.51434,-1.868683 2.25875,0 4.13547,0.562589 5.62712,1.684587 1.4905,1.123133 2.62828,2.914523 3.41243,5.373154 l 4.40499,-1.036924 c -0.9068,-3.120701 -2.51164,-5.542975 -4.81867,-7.264017 -2.30645,-1.722177 -5.15135,-2.583994 -8.53382,-2.583994 z M 37.271307,32.966156 v 5.726928 l 10.788453,-0.0044 v 28.346305 h 6.813759 v -28.34971 l 17.70646,-0.0078 6.819303,10.364812 -11.590267,17.992583 h 8.187825 l 7.516872,-12.261197 7.493582,12.261219 H 99.23948 L 87.686917,49.094509 94.738005,38.076492 H 106.54453 V 67.03497 h 6.81376 V 38.076492 h 9.08502 V 32.966156 H 90.293092 89.51013 v 0.384827 L 83.31298,43.932049 76.871849,32.966156 Z m 90.433143,0.131967 v 33.804852 h 12.20022 c 2.0447,0 3.85403,-0.190597 5.42972,-0.575575 1.57681,-0.383842 2.92107,-0.949004 4.03568,-1.695678 1.11462,-0.74497 2.1406,-1.766689 3.07862,-3.066414 0.93859,-1.298588 1.7077,-2.940659 2.30674,-4.922896 0.60131,-1.982804 0.90051,-4.258875 0.90051,-6.825959 0,-3.01225 -0.44228,-5.692498 -1.32637,-8.036998 -0.88408,-2.345069 -2.21892,-4.269858 -4.00242,-5.776835 -1.3673,-1.167424 -3.01992,-1.974668 -4.95616,-2.420969 -1.3832,-0.323085 -3.39077,-0.483528 -6.01861,-0.483528 z m 34.49577,0 v 33.804852 h 4.47374 V 33.098129 Z m 11.98618,0 v 33.804852 0.0011 h 4.47264 V 51.892519 h 5.18907 c 1.15265,0 1.98263,0.05461 2.49083,0.161923 0.69216,0.169786 1.37282,0.468463 2.04057,0.898299 0.66889,0.431537 1.42633,1.183048 2.27237,2.259052 0.84435,1.077143 1.92178,2.629615 3.22832,4.657844 l 4.47265,7.034454 h 5.62712 l -5.87999,-9.201461 c -1.16855,-1.798263 -2.40531,-3.297814 -3.71185,-4.497036 -0.61551,-0.552482 -1.51486,-1.113987 -2.69932,-1.682368 3.2439,-0.446869 5.64282,-1.490758 7.19636,-3.136282 1.55183,-1.644956 2.32781,-3.668438 2.32781,-6.065177 0,-1.860724 -0.4693,-3.558806 -1.40734,-5.097012 -0.93802,-1.536502 -2.19012,-2.609138 -3.75843,-3.216129 -1.56716,-0.60756 -3.85807,-0.910497 -6.87031,-0.910497 z m 35.17337,0 v 33.804858 h 25.22888 V 62.91498 H 213.83462 V 51.40567 h 18.70126 v -3.964711 h -18.70126 v -10.35483 h 19.96996 v -3.988 z m 60.07398,0 v 3.988001 h 11.13779 v 29.816851 h 4.47377 V 37.086129 h 11.18437 v -3.988 z M 25.915041,34.101778 v 4.542504 h 6.245946 V 34.101778 Z M 178.66015,36.83216 h 10.69861 c 2.50804,0 4.34178,0.516515 5.5018,1.545959 1.1612,1.030014 1.74115,2.345247 1.74115,3.943642 0,1.091336 -0.30035,2.101389 -0.9005,3.032034 -0.59905,0.930079 -1.47631,1.6059 -2.62725,2.029489 -1.15438,0.422454 -2.75346,0.633245 -4.79758,0.633245 h -9.61623 z m -46.48084,0.253964 h 7.10321 c 2.65964,0 4.58927,0.230418 5.78793,0.690912 1.66141,0.646172 3.07193,1.918446 4.23197,3.817214 1.16118,1.8982 1.74116,4.615452 1.74116,8.151225 0,2.551754 -0.29724,4.725717 -0.88833,6.514328 -0.59336,1.791451 -1.41852,3.217887 -2.47863,4.278563 -0.7552,0.753487 -1.76693,1.337704 -3.03315,1.753345 -1.26849,0.413935 -3.01749,0.623263 -5.24672,0.623263 h -7.21744 z M 8.8806396,43.754601 v 4.542507 H 15.6944 v -4.542507 z m 11.3562674,0 v 4.542507 h 23.848159 v -4.542507 z m 38.611304,0 v 4.542507 H 73.999513 L 70.69577,43.754601 Z M 3.7703204,52.839615 v 4.542506 H 10.016267 V 52.83962 Z m 10.7884546,0 v 4.542506 H 44.085066 V 52.83962 Z m 44.289436,0 v 4.542506 h 10.646502 l 3.302632,-4.542506 z m -38.611304,9.085013 v 4.542507 h 6.245946 v -4.542507 z m 10.788453,0 v 4.542507 h 13.059706 v -4.542507 z m 27.822851,0 v 4.542507 h 4.938424 l 3.303742,-4.542507 z"
     id="rect2"
     style="stroke-width:0.56781328;fill:#f2ffff;fill-opacity:1" /></svg>