<svg height="58" viewBox="0 0 178 58" width="178" xmlns="http://www.w3.org/2000/svg"><path d="m535.96 2272.58c2.440012 0 4.539991-.41 6.3-1.23s3.59999-2.12999 5.52-3.93l4.56 4.68c-4.440022 4.92002-9.829968 7.38-16.17 7.38s-11.599979-2.03998-15.78-6.12-6.27-9.23997-6.27-15.48 2.129979-11.43998 6.39-15.6 9.639968-6.24 16.14-6.24 11.929978 2.39998 16.29 7.2l-4.5 4.92c-2.00001-1.92001-3.889991-3.26-5.67-4.02s-3.869988-1.14-6.27-1.14c-4.240021 0-7.799986 1.36999-10.68 4.11s-4.32 6.23998-4.32 10.5 1.429986 7.81999 4.29 10.68 6.24998 4.29 10.17 4.29zm46.491429 6.42h-6.12v-4.26c-2.640014 3.16002-6.179978 4.74-10.62 4.74-3.320017 0-6.06999-.93999-8.25-2.82-2.180011-1.88001-3.27-4.38998-3.27-7.53s1.159988-5.48999 3.48-7.05c2.320011-1.56001 5.45998-2.34 9.42-2.34h8.7v-1.2c0-4.24002-2.359977-6.36-7.08-6.36-2.960015 0-6.039984 1.07999-9.24 3.24l-3-4.2c3.880019-3.08002 8.279975-4.62 13.2-4.62 3.760018 0 6.829988.94999 9.21 2.85 2.380011 1.90001 3.57 4.88998 3.57 8.97zm-6.72-11.88v-2.7h-7.56c-4.840025 0-7.26 1.51998-7.26 4.56 0 1.56001.599994 2.75 1.8 3.57s2.869989 1.23 5.01 1.23c2.14001 0 4.009992-.59999 5.61-1.8s2.4-2.81999 2.4-4.86zm15.111428 7.8c-3.000015-3.04002-4.5-7.03998-4.5-12s1.539985-8.91999 4.62-11.88 6.749979-4.44 11.01-4.44 7.689987 1.79998 10.29 5.4v-17.52h6.72v44.52h-6.72v-4.8c-2.480012 3.52002-6.099976 5.28-10.86 5.28-4.04002 0-7.559985-1.51998-10.56-4.56zm5.16-4.26c1.96001 1.92001 4.259987 2.88 6.9 2.88s4.879991-.96999 6.72-2.91 2.76-4.42998 2.76-7.47-.919991-5.57999-2.76-7.62-4.099987-3.06-6.78-3.06-4.97999 1.01999-6.9 3.06-2.88 4.58998-2.88 7.65.97999 5.54999 2.94 7.47zm31.731429 4.26c-3.000015-3.04002-4.5-7.03998-4.5-12s1.539984-8.91999 4.62-11.88c3.080015-2.96001 6.749978-4.44 11.01-4.44 4.260021 0 7.689987 1.79998 10.29 5.4v-17.52h6.72v44.52h-6.72v-4.8c-2.480013 3.52002-6.099977 5.28-10.86 5.28-4.040021 0-7.559985-1.51998-10.56-4.56zm5.16-4.26c1.960009 1.92001 4.259986 2.88 6.9 2.88 2.640013 0 4.87999-.96999 6.72-2.91 1.840009-1.94001 2.76-4.42998 2.76-7.47s-.919991-5.57999-2.76-7.62c-1.84001-2.04001-4.099987-3.06-6.78-3.06-2.680014 0-4.979991 1.01999-6.9 3.06-1.92001 2.04001-2.88 4.58998-2.88 7.65s.97999 5.54999 2.94 7.47zm33.291428 21.06c-2.920014 0-5.559988-1.05999-7.92-3.18l3.06-5.46c1.400007 1.32001 2.849993 1.98 4.35 1.98 1.500008 0 2.719995-.53999 3.66-1.62s1.41-2.25999 1.41-3.54c0-.56-4.299957-11.49989-12.9-32.82h7.2l9.54 23.52 9.54-23.52h7.2l-15.48 37.92c-.920004 2.08001-2.239991 3.71999-3.96 4.92-1.720008 1.20001-3.619989 1.8-5.7 1.8z" fill-rule="evenodd" transform="translate(-514 -2234)"/></svg>