<svg height="304.12064" width="863.5329" xmlns="http://www.w3.org/2000/svg"><g transform="translate(-7.393994 -290.84922)"><path d="m7.3939941 457.19696s284.9951559-30.72991 301.3514059-35.68635c16.35624-4.95644 164.64908-21.31268 164.64908-21.31268s-4.55615-12.88674-31.32091-12.39109c-26.76476.49564-11.54498 2.50312-51.19648 7.45956s-284.38957 31.9016-282.40699 35.86675c1.98257 3.96515-91.658876.29034-101.0761059 26.06381z"/><path d="m82.490586 482.16205s16.036729 17.40339 154.123104-4.32594c41.00536-4.20568 51.17636-4.93153 51.17636-4.93153s129.40231 4.70132 145.87454-27.54221c-26.98643-20.32743-95.98164 4.79061-165.17548 13.83853-45.20799 5.91149-182.844265 2.63371-185.998524 22.96115z"/></g><path d="m529.59086 169.51099s47.64763-10.8425 82.65152-26.5157 41.108-8.04326 41.108-8.04326l8.3087 11.89847s-56.77664 79.20691-80.60881 96.02962c-23.83216 16.8227-101.63719 75.70217-148.2501 56.77663-56.53992-68.38647 100.47793-250.141105 175.45558-285.285071 59.09852-25.584533 79.68881-28.21308 56.55759 88.319211-9.1123 13.31798-39.05537 5.69593-36.79968 4.55615 7.34963-3.71368 23.39301-64.802289 16.38355-71.110804s-6.70478-2.775792-21.99111-.03522c-22.12403 3.966445-182.246 124.768414-166.47471 226.055124 69.74414 29.79021 141.24065-89.7211 141.24065-89.7211s-20.31862 14.59466-60.73022 9.82053c-11.80488-1.39459-6.85096-12.74457-6.85096-12.74458z"/><path d="m835.0264 15.291191c-59.82394-9.9631233-158.91432 107.517949-188.13987 171.962119-17.17746 55.59714-37.45784 89.17636-9.36164 116.42822 33.68641 2.54959 89.46165-2.93344 168.00151-101.60909 93.66636-98.48189 45.75398-178.566484 45.75398-178.566484-7.47338-1.471442-8.81953-6.976627-16.25398-8.214765zm-3.11591 33.589019s25.67251 35.219731-49.66534 134.34848c-36.80364 34.68922-75.48757 97.14219-132.18191 77.73484 6.08943-23.32732 104.52432-226.844456 181.84725-212.08332z"/></svg>