<?xml version="1.0" encoding="UTF-8" standalone="no"?>
<svg
   xmlns:dc="http://purl.org/dc/elements/1.1/"
   xmlns:cc="http://creativecommons.org/ns#"
   xmlns:rdf="http://www.w3.org/1999/02/22-rdf-syntax-ns#"
   xmlns:svg="http://www.w3.org/2000/svg"
   xmlns="http://www.w3.org/2000/svg"
   xml:space="preserve"
   enable-background="new 0 0 100 100"
   viewBox="0 0 100 100"
   height="100px"
   width="100px"
   y="0px"
   x="0px"
   id="Layer_1"
   version="1.1"><metadata
     id="metadata31"><rdf:RDF><cc:Work
         rdf:about=""><dc:format>image/svg+xml</dc:format><dc:type
           rdf:resource="http://purl.org/dc/dcmitype/StillImage" /><dc:title></dc:title></cc:Work></rdf:RDF></metadata><defs
     id="defs29" /><g
     transform="matrix(1.4770163,0,0,1.4770163,-22.373799,-23.850076)"
     id="g24"><path
       id="path2"
       d="m 76.168,40.551 c 0,0 -4.336,-4.669 -11.037,-4.644 -0.021,0 -21.023,-0.026 -21.023,-0.026 v 4.762 l 10.424,-0.004 v 23.479 h 5.638 l 0.021,-23.426 z" /><rect
       style="fill:#0071bc"
       id="rect4"
       height="3.6800001"
       width="5.2119999"
       y="36.831001"
       x="35.523998" /><rect
       id="rect6"
       height="3.9849999"
       width="5.5190001"
       y="44.801998"
       x="22.952999" /><rect
       id="rect8"
       height="3.9860001"
       width="5.5190001"
       y="52.466999"
       x="18.354" /><rect
       style="fill:#0071bc"
       id="rect10"
       height="3.6800001"
       width="5.2119999"
       y="60.438"
       x="31.844" /><rect
       id="rect12"
       height="3.6800001"
       width="10.73"
       y="60.438"
       x="40.429001" /><rect
       style="fill:#0071bc"
       id="rect14"
       height="3.9860001"
       width="23.914"
       y="52.466999"
       x="27.246" /><rect
       id="rect16"
       height="3.9849999"
       width="19.315001"
       y="44.801998"
       x="31.844" /><path
       style="fill:#0071bc"
       id="path18"
       d="m 63.424,64.118 h 5.078 c 2.843,0 5.375,-1.839 7.316,-3.68 H 63.424 Z" /><path
       id="path20"
       d="M 63.424,56.453 H 78.51 c 0.525,-1.227 0.898,-2.146 1.09,-3.986 H 63.424 Z" /><path
       style="fill:#0071bc"
       id="path22"
       d="M 63.424,48.788 H 79.646 C 79.48,46.949 79.111,46.029 78.566,44.496 H 63.424 Z" /></g></svg>